Coordinates
version=1
nRows=8
nColumns=36
inDegrees=yes

Units are S.I. units (second, meters, Newtons, ...)
If the header above contains a line with 'inDegrees', this indicates whether rotational values are in degrees (yes) or radians (no).

endheader
time	pelvis_tilt	pelvis_list	pelvis_rotation	pelvis_tx	pelvis_ty	pelvis_tz	hip_flexion_r	hip_adduction_r	hip_rotation_r	knee_angle_r	knee_angle_r_beta	ankle_angle_r	subtalar_angle_r	mtp_angle_r	hip_flexion_l	hip_adduction_l	hip_rotation_l	knee_angle_l	knee_angle_l_beta	ankle_angle_l	subtalar_angle_l	mtp_angle_l	lumbar_extension	lumbar_bending	lumbar_rotation	arm_flex_r	arm_add_r	arm_rot_r	elbow_flex_r	pro_sup_r	arm_flex_l	arm_add_l	arm_rot_l	elbow_flex_l	pro_sup_l
     16.20000000	     27.64334135	     -2.51760190	     -1.81885406	     -0.56525361	      0.58479399	     -0.62164101	     60.86333924	     -3.25770802	      3.58610585	     97.62133830	      1.70381377	     14.94885096	     -9.43963392	     -7.49999987	     60.82599065	     -3.87189655	      5.27970632	     98.03627747	      1.71105583	      8.12235815	    -17.87112356	     -7.49999987	    -42.38054651	      1.60637224	     -3.20134703	      9.04075362	    -17.99678056	     17.27892183	    133.21523017	    105.31957015	     14.09536531	    -12.76900564	     10.60944355	    133.53524555	     88.46368393
     16.21000000	     28.57106248	     -2.56653613	     -1.70364632	     -0.56718319	      0.58476765	     -0.62227107	     59.94597212	     -3.27142388	      3.58228990	     97.63023635	      1.70396907	     14.99959849	     -9.56909013	     -7.49999987	     59.96976793	     -3.79698597	      5.29270440	     98.08029485	      1.71182408	      8.22930286	    -17.89465650	     -7.49999987	    -42.38879839	      1.73631877	     -3.21149200	      8.22145453	    -17.94275113	     16.85647347	    132.76615383	    105.32733356	     13.41130776	    -12.44256286	     10.42526535	    133.30744347	     88.50591262
     16.22000000	     29.45845622	     -2.66558421	     -1.59989934	     -0.56912584	      0.58484748	     -0.62259440	     59.06281432	     -3.18923796	      3.56812107	     97.59864368	      1.70341768	     15.09828514	     -9.83322917	     -7.49999987	     59.14684084	     -3.81601886	      5.36591901	     98.11125946	      1.71236451	      8.33133314	    -17.85702854	     -7.49999987	    -42.30245782	      1.80535212	     -3.35671169	      7.54665388	    -17.84282481	     16.63922812	    132.06274100	    105.29762535	     12.63452114	    -12.23348134	     10.28045406	    133.08460954	     88.53375243
     16.23000000	     30.30426611	     -2.66743625	     -1.49738740	     -0.57094678	      0.58521407	     -0.62241858	     58.20960619	     -3.12151360	      3.63833305	     97.57533927	      1.70301094	     15.23734199	    -10.27407756	     -7.49999987	     58.31485006	     -3.86688673	      5.31592327	     98.07999159	      1.71181878	      8.52625356	    -17.71579981	     -7.49999987	    -42.20881119	      1.79112994	     -3.54486646	      6.87365150	    -17.59703453	     16.53627566	    131.38438054	    105.26665744	     11.82696422	    -12.15725083	     10.08336950	    132.83560935	     88.58081033
     16.24000000	     30.84514017	     -2.63410013	     -1.42037055	     -0.57225500	      0.58540646	     -0.62230205	     57.69103129	     -3.10056130	      3.73307814	     97.57132441	      1.70294087	     15.24600256	    -10.36639772	     -7.49999987	     57.80215230	     -3.86133159	      5.27606219	     98.08043595	      1.71182654	      8.56338306	    -17.66860130	     -7.49999987	    -41.86931939	      1.78070292	     -3.55516019	      5.95778200	    -17.56384218	     16.66005839	    131.06685512	    105.25259981	     10.87579471	    -12.09845714	     10.16826659	    132.68216344	     88.58508019
     16.25000000	     31.62580562	     -2.45633694	     -1.50883373	     -0.57379333	      0.58625267	     -0.62231465	     56.88904728	     -3.09271988	      3.97424172	     97.49727717	      1.70164850	     15.34107385	    -10.64894153	     -7.49999987	     56.84243393	     -3.87262646	      4.93611429	     97.94787653	      1.70951294	      9.01180869	    -17.56847077	     -7.49999987	    -41.76721084	      1.52663292	     -3.55958580	      5.18261317	    -17.35034001	     16.29646371	    130.34164993	    105.16774840	      9.98164384	    -11.88223410	      9.86534538	    132.36531731	     88.57697240
     16.26000000	     32.07253718	     -2.41727631	     -1.50436337	     -0.57499750	      0.58640134	     -0.62256292	     56.47187541	     -3.09100386	      4.07555998	     97.48237592	      1.70138842	     15.29842874	    -10.65727070	     -7.49999987	     56.41928332	     -3.86293190	      4.86024643	     97.95429298	      1.70962493	      9.09048605	    -17.55817082	     -7.49999987	    -41.38494882	      1.48706051	     -3.52731258	      4.34222868	    -17.34931381	     16.38775323	    130.11593501	    105.15203931	      9.00175536	    -11.77257649	      9.93897644	    132.27826538	     88.56863318
     16.27000000	     32.69712896	     -2.25622138	     -1.54619348	     -0.57668690	      0.58687045	     -0.62269335	     55.86945029	     -3.11224406	      4.30764129	     97.42658965	      1.70041477	     15.25823938	    -10.69695308	     -7.49999987	     55.71362848	     -3.85809695	      4.56598598	     97.82462908	      1.70736187	      9.57171896	    -17.56306887	     -7.49999987	    -41.20625316	      1.28799305	     -3.60146451	      3.64903894	    -17.06331122	     15.96164345	    129.55134210	    105.05352834	      8.15505220	    -11.49199682	      9.51796699	    132.15796423	     88.50608668
